<!-- A sprite that contains all SVG files -->
<svg xmlns="http://www.w3.org/2000/svg" xmlns:xlink="http://www.w3.org/1999/xlink">
  <defs>
    <symbol id="triangle" xmlns="http://www.w3.org/2000/svg"><polygon strokeWidth="1px" strokeLinejoin="round" strokeMiterlimit="10" points="14.921,2.27 28.667,25.5 1.175,25.5" /></symbol>
    <symbol id="circle" xmlns="http://www.w3.org/2000/svg"><path d="M15,30A15,15,0,1,1,30,15,15,15,0,0,1,15,30ZM15,6.23A8.77,8.77,0,1,0,23.77,15,8.77,8.77,0,0,0,15,6.23Z" /></symbol>
    <symbol id="arrowUp" xmlns="http://www.w3.org/2000/svg"><path d="M28.74,20.81H1.26a1.26,1.26,0,0,1-1-2L14.16.5a1.25,1.25,0,0,1,1-.5h0a1.24,1.24,0,0,1,1,.51L29.75,18.8a1.25,1.25,0,0,1-1,2ZM3.81,18.29H26.22L15.16,3.37Z" /><path d="M28.74,42H1.26a1.28,1.28,0,0,1-1.13-.71A1.26,1.26,0,0,1,.26,40l13.9-18.29a1.28,1.28,0,0,1,1-.5h0a1.24,1.24,0,0,1,1,.51L29.75,40a1.26,1.26,0,0,1,.12,1.32A1.28,1.28,0,0,1,28.74,42ZM3.81,39.47H26.22L15.16,24.55Z" /></symbol>
    <symbol id="upDown" xmlns="http://www.w3.org/2000/svg"><path d="M28.74,44.58a1.28,1.28,0,0,1-1-.51L15.16,27.13l-12.89,17a1.26,1.26,0,1,1-2-1.53l13.9-18.29a1.34,1.34,0,0,1,1-.5,1.24,1.24,0,0,1,1,.51L29.75,42.56a1.27,1.27,0,0,1-1,2Z" /><path d="M14.83,20.82h0a1.28,1.28,0,0,1-1-.52L.25,2a1.27,1.27,0,0,1,2-1.51L14.84,17.45,27.73.5a1.26,1.26,0,0,1,2,1.53L15.84,20.32A1.28,1.28,0,0,1,14.83,20.82Z" /></symbol>
    <symbol id="box" xmlns="http://www.w3.org/2000/svg"><path d="M28,2V28H2V2H28m.13-2H1.88A1.88,1.88,0,0,0,0,1.88V28.13A1.88,1.88,0,0,0,1.88,30H28.13A1.87,1.87,0,0,0,30,28.13V1.88A1.88,1.88,0,0,0,28.13,0Z" /></symbol>
    <symbol id="hexa" xmlns="http://www.w3.org/2000/svg"><polygon strokeLinejoin="round" strokeMiterlimit="10" points="27.5,21.904 15,28.809  2.5,21.904 2.5,8.095 15,1.19 27.5,8.095" /></symbol>
    <!--<symbol id="cross" xmlns="http://www.w3.org/2000/svg"><path strokeWidth="3px" d="M60.5,50l34.8-34.8c2.9-2.9,2.9-7.6,0-10.5c-2.9-2.9-7.6-2.9-10.5,0L50,39.5L15.2,4.7c-2.9-2.9-7.6-2.9-10.5,0    c-2.9,2.9-2.9,7.6,0,10.5L39.5,50L4.7,84.8c-2.9,2.9-2.9,7.6,0,10.5c1.4,1.4,3.3,2.2,5.2,2.2s3.8-0.7,5.2-2.2L50,60.5l34.8,34.8    c1.4,1.4,3.3,2.2,5.2,2.2c1.9,0,3.8-0.7,5.2-2.2c2.9-2.9,2.9-7.6,0-10.5L60.5,50z" /></symbol>-->
    <symbol id="cross" xmlns="http://www.w3.org/2000/svg"><path strokeWidth="3px" d="M170,130h-2c-5.523,0-10-4.477-10-10s4.477-10,10-10h2c5.523,0,10,4.477,10,10S175.523,130,170,130z M360,360v30c0,5.523-4.477,10-10,10H240c-38.598,0-70-31.402-70-70v-30c0-5.523,4.477-10,10-10h110 C328.598,290,360,321.402,360,360z M340,360c0-27.57-22.43-50-50-50H190v20c0,27.57,22.43,50,50,50h100V360z M479.988,240.489 c0.008,0.169,0.012,0.34,0.012,0.511v109c0,71.682-58.318,130-130,130H220c-71.682,0-130-58.318-130-130V200H40 c-22.056,0-40-17.944-40-40s17.944-40,40-40h51.841c7.596-40.85,38.021-74.681,78.605-85.98C173.34,14.79,189.975,0,210,0h10 c5.523,0,10,4.477,10,10v24.145C276.816,47.393,310,90.66,310,140v90c38.598,0,70-31.402,70-70c0-5.523,4.477-10,10-10 c49.626,0,90,40.374,90,90C480,240.164,479.996,240.327,479.988,240.489z M90,140H40c-11.028,0-20,8.972-20,20s8.972,20,20,20h50 V140z M460,244.364c-0.641-1.319-1-2.799-1-4.364c0-1.465,0.315-2.856,0.881-4.109c-1.954-33.559-27.655-60.85-60.504-65.265 C394.102,215.261,356.031,250,310,250h-10c-5.523,0-10-4.477-10-10V140c0-42.638-30.276-79.73-71.989-88.198 c-4.661-0.946-8.011-5.044-8.011-9.8V20c-11.028,0-20,8.972-20,20v2.002c0,4.756-3.35,8.854-8.011,9.8 C140.276,60.27,110,97.362,110,140v210c0,60.654,49.346,110,110,110h130c60.654,0,110-49.346,110-110V244.364z" /></symbol>
  </defs>
</svg>